<svg width="772" height="162" viewBox="0 0 772 162" fill="none" xmlns="http://www.w3.org/2000/svg">
<g filter="url(#filter0_d_25_352)">
<rect x="6" y="6" width="760" height="150" rx="12" fill="url(#paint0_linear_25_352)"/>
<rect x="6.5" y="6.5" width="759" height="149" rx="11.5" stroke="black" stroke-opacity="0.2"/>
</g>
<path d="M134.98 51.5547L97.4805 39.0547C96.5201 38.7305 95.4799 38.7305 94.5195 39.0547L57.0195 51.5547C56.1247 51.851 55.3401 52.4102 54.768 53.1593C54.1959 53.9085 53.8629 54.8126 53.8125 55.7539C53.8082 55.8359 53.8082 55.918 53.8125 56V87.25C53.8125 88.4932 54.3064 89.6855 55.1854 90.5645C56.0645 91.4436 57.2568 91.9375 58.5 91.9375C59.7432 91.9375 60.9355 91.4436 61.8146 90.5645C62.6936 89.6855 63.1875 88.4932 63.1875 87.25V62.5039L72.4492 65.5898C69.5748 71.0918 68.7207 77.4274 70.0354 83.4941C71.35 89.5608 74.7504 94.9745 79.6445 98.7929C73.2399 101.951 67.8196 106.799 63.9688 112.812C63.622 113.328 63.3811 113.907 63.2601 114.516C63.1392 115.126 63.1405 115.753 63.2641 116.362C63.3877 116.971 63.6311 117.549 63.9801 118.063C64.3291 118.577 64.7768 119.016 65.2971 119.355C65.8174 119.695 66.4 119.927 67.011 120.04C67.622 120.152 68.2492 120.141 68.8561 120.009C69.4631 119.877 70.0377 119.625 70.5466 119.269C71.0555 118.913 71.4884 118.459 71.8203 117.934C77.3945 109.355 86.2344 104.437 96 104.437C105.766 104.437 114.605 109.355 120.199 117.934C120.531 118.459 120.964 118.913 121.473 119.269C121.982 119.625 122.556 119.877 123.163 120.009C123.77 120.141 124.398 120.152 125.009 120.04C125.62 119.927 126.202 119.695 126.722 119.355C127.243 119.016 127.69 118.577 128.039 118.063C128.388 117.549 128.632 116.971 128.755 116.362C128.879 115.753 128.88 115.126 128.759 114.516C128.638 113.907 128.398 113.328 128.051 112.812C124.196 106.792 118.769 101.94 112.355 98.7812C117.25 94.9628 120.65 89.5491 121.965 83.4824C123.279 77.4157 122.425 71.08 119.551 65.5781L134.98 60.4336C135.913 60.1217 136.723 59.5247 137.297 58.727C137.872 57.9293 138.181 56.9712 138.181 55.9883C138.181 55.0053 137.872 54.0472 137.297 53.2495C136.723 52.4518 135.913 51.8548 134.98 51.5429V51.5547ZM96 48.4297L118.676 56L96 63.5586L73.3438 56L96 48.4297ZM113.188 77.875C113.188 80.5446 112.567 83.1777 111.373 85.5655C110.179 87.9532 108.445 90.03 106.309 91.6312C104.172 93.2324 101.693 94.3139 99.0657 94.7901C96.4388 95.2663 93.7371 95.124 91.1748 94.3745C88.6125 93.625 86.2601 92.289 84.3039 90.4723C82.3477 88.6556 80.8416 86.4081 79.905 83.9082C78.9684 81.4082 78.627 78.7244 78.9079 76.0696C79.1889 73.4147 80.0844 70.8618 81.5234 68.6133L94.5195 72.9453C95.4801 73.268 96.5199 73.268 97.4805 72.9453L110.477 68.6133C112.249 71.3769 113.19 74.5917 113.188 77.875Z" fill="url(#paint1_linear_25_352)"/>
<path d="M509.333 101.833C511.543 101.833 513.663 100.955 515.226 99.3926C516.789 97.8298 517.667 95.7102 517.667 93.5V47.6667C517.667 45.4566 516.789 43.337 515.226 41.7742C513.663 40.2113 511.543 39.3334 509.333 39.3334H465.417C466.875 41.875 467.667 44.75 467.667 47.6667H509.333V93.5H471.833V101.833M488.5 60.1667V68.5H463.5V122.667H455.167V97.6667H446.833V122.667H438.5V89.3334H432.25V68.5C432.25 66.2899 433.128 64.1703 434.691 62.6075C436.254 61.0447 438.373 60.1667 440.583 60.1667H488.5ZM459.333 47.6667C459.333 49.8768 458.455 51.9965 456.893 53.5593C455.33 55.1221 453.21 56 451 56C448.79 56 446.67 55.1221 445.107 53.5593C443.545 51.9965 442.667 49.8768 442.667 47.6667C442.667 45.4566 443.545 43.337 445.107 41.7742C446.67 40.2113 448.79 39.3334 451 39.3334C453.21 39.3334 455.33 40.2113 456.893 41.7742C458.455 43.337 459.333 45.4566 459.333 47.6667Z" fill="url(#paint2_linear_25_352)"/>
<defs>
<filter id="filter0_d_25_352" x="0" y="0" width="772" height="162" filterUnits="userSpaceOnUse" color-interpolation-filters="sRGB">
<feFlood flood-opacity="0" result="BackgroundImageFix"/>
<feColorMatrix in="SourceAlpha" type="matrix" values="0 0 0 0 0 0 0 0 0 0 0 0 0 0 0 0 0 0 127 0" result="hardAlpha"/>
<feOffset/>
<feGaussianBlur stdDeviation="3"/>
<feComposite in2="hardAlpha" operator="out"/>
<feColorMatrix type="matrix" values="0 0 0 0 0 0 0 0 0 0 0 0 0 0 0 0 0 0 0.25 0"/>
<feBlend mode="normal" in2="BackgroundImageFix" result="effect1_dropShadow_25_352"/>
<feBlend mode="normal" in="SourceGraphic" in2="effect1_dropShadow_25_352" result="shape"/>
</filter>
<linearGradient id="paint0_linear_25_352" x1="386" y1="6" x2="386" y2="156" gradientUnits="userSpaceOnUse">
<stop stop-color="white"/>
<stop offset="1" stop-color="#F5F5F5"/>
</linearGradient>
<linearGradient id="paint1_linear_25_352" x1="138.181" y1="38.8115" x2="45.8261" y2="52.732" gradientUnits="userSpaceOnUse">
<stop stop-color="#3572EF"/>
<stop offset="1" stop-color="#050C9C"/>
</linearGradient>
<linearGradient id="paint2_linear_25_352" x1="517.667" y1="39.3334" x2="424.117" y2="53.2612" gradientUnits="userSpaceOnUse">
<stop stop-color="#3572EF"/>
<stop offset="1" stop-color="#050C9C"/>
</linearGradient>
</defs>
</svg>
