<svg xmlns="http://www.w3.org/2000/svg" xmlns:xlink="http://www.w3.org/1999/xlink" width="1920" zoomAndPan="magnify" viewBox="0 0 1440 809.999993" height="1080" preserveAspectRatio="xMidYMid meet" version="1.0"><defs><g/><clipPath id="582b8a8913"><path d="M 172 574 L 1267 574 L 1267 626.773438 L 172 626.773438 Z M 172 574 " clip-rule="nonzero"/></clipPath></defs><g fill="#050c9c" fill-opacity="1"><g transform="translate(43.470787, 546.840887)"><g><path d="M 222.15625 -244.421875 C 221.007812 -242.703125 220.296875 -241.414062 220.015625 -240.5625 C 216.878906 -235.132812 212.597656 -232.421875 207.171875 -232.421875 C 200.890625 -232.421875 196.328125 -234.992188 193.484375 -240.140625 C 193.191406 -240.703125 192.898438 -241.335938 192.609375 -242.046875 C 192.328125 -242.765625 191.90625 -243.410156 191.34375 -243.984375 C 187.0625 -254.828125 179.066406 -259.535156 167.359375 -258.109375 C 159.660156 -256.972656 152.457031 -254.90625 145.75 -251.90625 C 139.039062 -248.90625 132.40625 -245.410156 125.84375 -241.421875 C 117.851562 -236.285156 110.148438 -230.578125 102.734375 -224.296875 C 95.316406 -218.015625 88.609375 -210.878906 82.609375 -202.890625 C 79.179688 -198.609375 75.757812 -193.613281 72.34375 -187.90625 C 70.625 -184.488281 69.765625 -180.640625 69.765625 -176.359375 C 69.484375 -166.085938 73.765625 -159.378906 82.609375 -156.234375 C 90.035156 -153.378906 97.597656 -150.664062 105.296875 -148.09375 C 113.003906 -145.53125 120.566406 -142.96875 127.984375 -140.40625 C 136.546875 -137.257812 145.035156 -134.046875 153.453125 -130.765625 C 161.867188 -127.484375 170.070312 -123.414062 178.0625 -118.5625 C 183.769531 -115.144531 188.976562 -111.363281 193.6875 -107.21875 C 198.394531 -103.082031 202.601562 -98.160156 206.3125 -92.453125 C 213.738281 -80.472656 216.453125 -67.988281 214.453125 -55 C 212.453125 -42.019531 206.03125 -31.109375 195.1875 -22.265625 C 173.78125 -4.285156 149.382812 4.703125 122 4.703125 C 106.007812 4.703125 90.597656 0.992188 75.765625 -6.421875 C 66.347656 -10.984375 60.425781 -17.757812 58 -26.75 C 55.570312 -35.738281 57.210938 -44.800781 62.921875 -53.9375 C 66.054688 -59.070312 69.617188 -63.921875 73.609375 -68.484375 C 77.609375 -73.054688 82.035156 -77.195312 86.890625 -80.90625 C 88.316406 -81.757812 89.671875 -82.753906 90.953125 -83.890625 C 92.242188 -85.035156 93.882812 -86.320312 95.875 -87.75 C 93.882812 -88.320312 92.175781 -88.890625 90.75 -89.453125 C 89.320312 -90.023438 87.894531 -90.457031 86.46875 -90.75 C 80.757812 -92.75 74.90625 -94.601562 68.90625 -96.3125 C 62.914062 -98.019531 56.925781 -99.875 50.9375 -101.875 C 43.800781 -104.726562 36.804688 -108.148438 29.953125 -112.140625 C 23.109375 -116.140625 17.257812 -121.28125 12.40625 -127.5625 C 0.132812 -143.539062 -3 -161.234375 3 -180.640625 C 6.132812 -189.765625 10.128906 -198.179688 14.984375 -205.890625 C 19.835938 -213.597656 25.257812 -221.019531 31.25 -228.15625 C 42.375 -240.707031 54.570312 -251.832031 67.84375 -261.53125 C 81.113281 -271.238281 95.597656 -279.226562 111.296875 -285.5 C 121.566406 -289.5 131.910156 -292.566406 142.328125 -294.703125 C 152.742188 -296.847656 163.515625 -297.066406 174.640625 -295.359375 C 181.203125 -294.210938 187.765625 -292.710938 194.328125 -290.859375 C 200.890625 -289.003906 206.597656 -285.222656 211.453125 -279.515625 C 213.453125 -277.234375 215.304688 -274.734375 217.015625 -272.015625 C 218.734375 -269.304688 219.875 -266.382812 220.4375 -263.25 C 220.4375 -262.96875 220.648438 -262.609375 221.078125 -262.171875 C 221.515625 -261.742188 221.875 -261.390625 222.15625 -261.109375 C 222.15625 -258.253906 222.15625 -255.46875 222.15625 -252.75 C 222.15625 -250.039062 222.15625 -247.265625 222.15625 -244.421875 Z M 89.890625 -39.8125 C 90.742188 -38.664062 91.316406 -38.09375 91.609375 -38.09375 C 92.171875 -37.519531 92.597656 -37.234375 92.890625 -37.234375 C 106.015625 -34.097656 118.28125 -34.3125 129.6875 -37.875 C 141.101562 -41.445312 151.953125 -47.226562 162.234375 -55.21875 C 166.222656 -58.351562 165.9375 -61.492188 161.375 -64.640625 C 158.519531 -66.921875 155.59375 -68.84375 152.59375 -70.40625 C 149.601562 -71.976562 146.535156 -73.765625 143.390625 -75.765625 C 139.972656 -77.472656 136.691406 -77.1875 133.546875 -74.90625 C 128.410156 -71.769531 123.273438 -68.5625 118.140625 -65.28125 C 113.003906 -62 108.007812 -58.644531 103.15625 -55.21875 C 97.164062 -50.9375 92.742188 -45.800781 89.890625 -39.8125 Z M 43.234375 -119.421875 C 43.234375 -120.273438 43.519531 -120.988281 44.09375 -121.5625 C 42.375 -122.988281 40.726562 -124.488281 39.15625 -126.0625 C 37.59375 -127.632812 35.957031 -129.128906 34.25 -130.546875 C 25.113281 -138.253906 19.691406 -147.957031 17.984375 -159.65625 C 17.691406 -162.507812 17.546875 -165.289062 17.546875 -168 C 17.546875 -170.71875 17.40625 -173.503906 17.125 -176.359375 C 17.125 -177.210938 16.835938 -178.492188 16.265625 -180.203125 C 13.410156 -173.066406 12.335938 -166.144531 13.046875 -159.4375 C 13.765625 -152.738281 15.550781 -146.109375 18.40625 -139.546875 C 20.40625 -135.835938 22.832031 -132.554688 25.6875 -129.703125 C 28.539062 -126.847656 31.820312 -124.28125 35.53125 -122 C 36.664062 -121.425781 37.945312 -120.992188 39.375 -120.703125 C 40.800781 -120.421875 42.085938 -119.992188 43.234375 -119.421875 Z M 80.46875 -13.703125 C 76.757812 -19.691406 74.046875 -24.179688 72.328125 -27.171875 C 70.617188 -30.171875 69.691406 -32.738281 69.546875 -34.875 C 69.410156 -37.019531 69.695312 -39.585938 70.40625 -42.578125 C 71.125 -45.578125 71.910156 -49.929688 72.765625 -55.640625 C 69.054688 -53.359375 66.488281 -49.71875 65.0625 -44.71875 C 63.632812 -39.726562 63.773438 -34.378906 65.484375 -28.671875 C 68.335938 -18.691406 73.332031 -13.703125 80.46875 -13.703125 Z M 192.1875 -260.25 C 191.050781 -259.675781 190.335938 -259.109375 190.046875 -258.546875 C 190.910156 -256.546875 191.835938 -254.472656 192.828125 -252.328125 C 193.828125 -250.191406 194.898438 -248.125 196.046875 -246.125 C 196.898438 -244.988281 197.96875 -243.921875 199.25 -242.921875 C 200.539062 -241.921875 201.753906 -240.992188 202.890625 -240.140625 C 207.460938 -238.140625 211.601562 -239.566406 215.3125 -244.421875 C 212.457031 -244.128906 209.816406 -244.269531 207.390625 -244.84375 C 204.960938 -245.414062 202.894531 -246.695312 201.1875 -248.6875 C 199.757812 -250.40625 198.257812 -252.257812 196.6875 -254.25 C 195.113281 -256.25 193.613281 -258.25 192.1875 -260.25 Z M 168.21875 -50.515625 C 175.925781 -54.796875 178.640625 -60.21875 176.359375 -66.78125 C 174.640625 -72.488281 170.785156 -75.054688 164.796875 -74.484375 C 167.367188 -71.054688 169.082031 -68.34375 169.9375 -66.34375 C 170.789062 -64.34375 171.070312 -62.34375 170.78125 -60.34375 C 170.5 -58.351562 169.644531 -55.078125 168.21875 -50.515625 Z M 168.21875 -50.515625 "/></g></g></g><g fill="#050c9c" fill-opacity="1"><g transform="translate(278.464217, 546.840887)"><g><path d="M 128.84375 -180.203125 C 126.269531 -176.785156 124.128906 -173.078125 122.421875 -169.078125 C 120.710938 -165.078125 119.144531 -161.082031 117.71875 -157.09375 C 115.144531 -147.675781 112.570312 -138.1875 110 -128.625 C 107.4375 -119.0625 104.867188 -109.429688 102.296875 -99.734375 C 101.160156 -95.742188 98.738281 -92.390625 95.03125 -89.671875 C 91.320312 -86.960938 87.46875 -85.609375 83.46875 -85.609375 C 79.46875 -85.609375 75.753906 -87.175781 72.328125 -90.3125 C 68.910156 -93.457031 66.773438 -97.171875 65.921875 -101.453125 C 64.773438 -108.015625 63.773438 -114.644531 62.921875 -121.34375 C 62.066406 -128.050781 60.925781 -134.546875 59.5 -140.828125 C 58.644531 -144.816406 57.570312 -148.664062 56.28125 -152.375 C 55 -156.09375 53.644531 -160.09375 52.21875 -164.375 C 51.644531 -163.507812 51.144531 -162.863281 50.71875 -162.4375 C 50.289062 -162.007812 49.9375 -161.515625 49.65625 -160.953125 C 47.65625 -156.378906 46.296875 -151.59375 45.578125 -146.59375 C 44.867188 -141.601562 44.375 -136.6875 44.09375 -131.84375 C 44.09375 -126.132812 44.234375 -120.28125 44.515625 -114.28125 C 44.796875 -108.289062 44.9375 -102.441406 44.9375 -96.734375 C 44.9375 -85.035156 40.226562 -77.617188 30.8125 -74.484375 C 23.394531 -71.628906 16.691406 -72.195312 10.703125 -76.1875 C 4.710938 -80.1875 1.429688 -86.179688 0.859375 -94.171875 C 0.00390625 -105.015625 0.00390625 -115.71875 0.859375 -126.28125 C 1.429688 -134.550781 2.359375 -142.894531 3.640625 -151.3125 C 4.921875 -159.726562 7.5625 -167.929688 11.5625 -175.921875 C 14.695312 -182.203125 18.257812 -188.265625 22.25 -194.109375 C 26.25 -199.960938 31.53125 -204.460938 38.09375 -207.609375 C 45.507812 -211.316406 52.570312 -212.242188 59.28125 -210.390625 C 65.988281 -208.535156 71.625 -204.320312 76.1875 -197.75 C 77.90625 -195.46875 79.476562 -193.113281 80.90625 -190.6875 C 82.332031 -188.269531 83.757812 -185.632812 85.1875 -182.78125 C 86.039062 -184.488281 86.894531 -186.195312 87.75 -187.90625 C 88.601562 -189.625 89.457031 -191.335938 90.3125 -193.046875 C 93.457031 -199.609375 97.097656 -205.671875 101.234375 -211.234375 C 105.367188 -216.804688 110.429688 -221.585938 116.421875 -225.578125 C 130.410156 -235.566406 143.828125 -234.851562 156.671875 -223.4375 C 159.804688 -220.582031 162.226562 -217.300781 163.9375 -213.59375 C 165.65625 -209.882812 167.082031 -206.03125 168.21875 -202.03125 C 171.363281 -190.332031 173.21875 -178.488281 173.78125 -166.5 C 174.351562 -154.519531 174.351562 -142.394531 173.78125 -130.125 C 173.78125 -118.132812 172.925781 -105.863281 171.21875 -93.3125 C 170.9375 -89.601562 170.148438 -85.960938 168.859375 -82.390625 C 167.578125 -78.828125 165.222656 -75.765625 161.796875 -73.203125 C 157.804688 -70.628906 153.457031 -69.554688 148.75 -69.984375 C 144.039062 -70.410156 139.972656 -72.265625 136.546875 -75.546875 C 133.117188 -78.828125 131.265625 -83.179688 130.984375 -88.609375 C 130.410156 -97.171875 129.976562 -105.800781 129.6875 -114.5 C 129.40625 -123.207031 129.265625 -131.84375 129.265625 -140.40625 C 128.984375 -146.101562 128.984375 -151.878906 129.265625 -157.734375 C 129.554688 -163.585938 129.703125 -169.367188 129.703125 -175.078125 C 129.703125 -175.929688 129.703125 -176.785156 129.703125 -177.640625 C 129.703125 -178.492188 129.703125 -179.347656 129.703125 -180.203125 C 129.410156 -180.203125 129.265625 -180.203125 129.265625 -180.203125 C 129.265625 -180.203125 129.125 -180.203125 128.84375 -180.203125 Z M 74.046875 -134.828125 C 73.484375 -134.546875 72.628906 -134.40625 71.484375 -134.40625 C 72.054688 -130.125 72.410156 -125.914062 72.546875 -121.78125 C 72.691406 -117.644531 73.191406 -113.578125 74.046875 -109.578125 C 74.335938 -107.578125 74.976562 -105.648438 75.96875 -103.796875 C 76.96875 -101.941406 78.039062 -100.160156 79.1875 -98.453125 C 79.757812 -97.597656 80.613281 -96.953125 81.75 -96.515625 C 82.894531 -96.085938 84.039062 -95.59375 85.1875 -95.03125 C 85.75 -94.738281 86.316406 -94.804688 86.890625 -95.234375 C 87.460938 -95.660156 88.035156 -96.019531 88.609375 -96.3125 C 88.316406 -96.882812 88.03125 -97.382812 87.75 -97.8125 C 87.46875 -98.238281 87.179688 -98.59375 86.890625 -98.875 C 85.753906 -100.875 84.539062 -102.800781 83.25 -104.65625 C 81.96875 -106.507812 81.039062 -108.4375 80.46875 -110.4375 C 79.332031 -113.289062 78.476562 -116.210938 77.90625 -119.203125 C 77.332031 -122.203125 76.617188 -125.128906 75.765625 -127.984375 C 75.484375 -129.128906 75.195312 -130.269531 74.90625 -131.40625 C 74.625 -132.550781 74.335938 -133.691406 74.046875 -134.828125 Z M 55.640625 -201.609375 C 53.078125 -205.035156 48.226562 -205.035156 41.09375 -201.609375 C 35.664062 -198.753906 30.953125 -194.472656 26.953125 -188.765625 C 22.960938 -183.054688 21.539062 -178.207031 22.6875 -174.21875 C 24.96875 -177.351562 27.175781 -180.414062 29.3125 -183.40625 C 31.457031 -186.40625 33.957031 -189.050781 36.8125 -191.34375 C 39.382812 -193.625 42.378906 -195.476562 45.796875 -196.90625 C 49.222656 -198.332031 52.503906 -199.898438 55.640625 -201.609375 Z M 140.40625 -111.296875 C 140.113281 -111.003906 139.679688 -110.859375 139.109375 -110.859375 C 137.117188 -106.578125 136.691406 -101.441406 137.828125 -95.453125 C 138.972656 -89.460938 141.257812 -84.894531 144.6875 -81.75 C 147.820312 -79.1875 151.53125 -78.046875 155.8125 -78.328125 C 156.664062 -78.617188 157.664062 -79.332031 158.8125 -80.46875 C 158.519531 -81.039062 158.160156 -81.46875 157.734375 -81.75 C 157.304688 -82.039062 156.804688 -82.328125 156.234375 -82.609375 C 150.242188 -84.328125 146.394531 -88.179688 144.6875 -94.171875 C 144.113281 -95.878906 143.679688 -97.660156 143.390625 -99.515625 C 143.109375 -101.367188 142.679688 -103.296875 142.109375 -105.296875 C 141.535156 -107.578125 140.96875 -109.578125 140.40625 -111.296875 Z M 100.15625 -193.484375 C 100.726562 -193.191406 101.300781 -192.757812 101.875 -192.1875 C 104.15625 -195.332031 106.296875 -198.398438 108.296875 -201.390625 C 110.296875 -204.390625 112.578125 -207.03125 115.140625 -209.3125 C 117.992188 -211.882812 121.132812 -214.023438 124.5625 -215.734375 C 127.988281 -217.441406 131.410156 -219.296875 134.828125 -221.296875 C 131.410156 -223.296875 127.5625 -223.582031 123.28125 -222.15625 C 117 -219.300781 112.285156 -215.234375 109.140625 -209.953125 C 106.003906 -204.671875 103.007812 -199.179688 100.15625 -193.484375 Z M 27.390625 -80.90625 C 25.398438 -82.894531 23.40625 -84.816406 21.40625 -86.671875 C 19.40625 -88.535156 17.691406 -90.609375 16.265625 -92.890625 C 15.117188 -95.171875 14.1875 -97.59375 13.46875 -100.15625 C 12.757812 -102.726562 11.976562 -105.300781 11.125 -107.875 C 10.269531 -107.582031 9.84375 -107.296875 9.84375 -107.015625 C 7.84375 -102.734375 7.84375 -97.804688 9.84375 -92.234375 C 11.84375 -86.671875 14.835938 -82.75 18.828125 -80.46875 C 21.972656 -79.039062 24.828125 -79.1875 27.390625 -80.90625 Z M 27.390625 -80.90625 "/></g></g></g><g fill="#050c9c" fill-opacity="1"><g transform="translate(465.517254, 546.840887)"><g><path d="M 141.25 -94.59375 C 140.6875 -90.03125 140.117188 -85.394531 139.546875 -80.6875 C 138.972656 -75.976562 138.257812 -71.195312 137.40625 -66.34375 C 136.257812 -61.5 133.6875 -57.648438 129.6875 -54.796875 C 125.695312 -51.941406 121.132812 -50.796875 116 -51.359375 C 112.007812 -51.648438 108.300781 -53.648438 104.875 -57.359375 C 101.445312 -61.066406 99.445312 -65.0625 98.875 -69.34375 C 98.019531 -75.90625 96.738281 -82.179688 95.03125 -88.171875 C 95.03125 -88.742188 94.597656 -89.316406 93.734375 -89.890625 C 92.878906 -90.460938 92.171875 -90.75 91.609375 -90.75 C 85.035156 -90.457031 78.46875 -89.953125 71.90625 -89.234375 C 65.34375 -88.523438 58.925781 -87.175781 52.65625 -85.1875 C 46.09375 -83.1875 41.953125 -78.476562 40.234375 -71.0625 C 38.804688 -64.488281 36.664062 -58.207031 33.8125 -52.21875 C 32.382812 -49.363281 30.171875 -47.296875 27.171875 -46.015625 C 24.179688 -44.734375 20.972656 -44.234375 17.546875 -44.515625 C 10.128906 -45.367188 4.992188 -49.363281 2.140625 -56.5 C 0.710938 -60.207031 0.140625 -63.84375 0.421875 -67.40625 C 0.710938 -70.976562 1.285156 -74.617188 2.140625 -78.328125 C 5.273438 -89.460938 8.34375 -100.734375 11.34375 -112.140625 C 14.34375 -123.554688 17.695312 -134.832031 21.40625 -145.96875 C 24.820312 -156.8125 28.882812 -167.441406 33.59375 -177.859375 C 38.3125 -188.273438 43.804688 -198.191406 50.078125 -207.609375 C 58.066406 -220.160156 68.910156 -226.863281 82.609375 -227.71875 C 90.890625 -228.007812 98.738281 -225.015625 106.15625 -218.734375 C 114.425781 -211.597656 120.5625 -202.320312 124.5625 -190.90625 C 127.132812 -183.207031 129.347656 -175.429688 131.203125 -167.578125 C 133.054688 -159.734375 134.265625 -151.816406 134.828125 -143.828125 C 135.398438 -138.117188 136.1875 -132.476562 137.1875 -126.90625 C 138.1875 -121.34375 139.113281 -115.710938 139.96875 -110.015625 C 140.257812 -107.441406 140.40625 -104.867188 140.40625 -102.296875 C 140.40625 -99.734375 140.546875 -97.164062 140.828125 -94.59375 C 140.828125 -94.59375 140.96875 -94.59375 141.25 -94.59375 Z M 59.5 -128.421875 C 60.070312 -127.847656 60.359375 -127.703125 60.359375 -127.984375 C 69.203125 -128.554688 77.617188 -129.410156 85.609375 -130.546875 C 86.753906 -130.546875 87.328125 -131.40625 87.328125 -133.125 C 86.753906 -137.6875 86.109375 -142.175781 85.390625 -146.59375 C 84.679688 -151.019531 84.039062 -155.519531 83.46875 -160.09375 C 83.1875 -162.082031 82.757812 -163.929688 82.1875 -165.640625 C 81.613281 -167.359375 81.039062 -169.21875 80.46875 -171.21875 C 75.90625 -164.082031 71.835938 -157.019531 68.265625 -150.03125 C 64.703125 -143.039062 61.78125 -135.835938 59.5 -128.421875 Z M 50.515625 -191.34375 C 50.796875 -191.050781 51.003906 -190.90625 51.140625 -190.90625 C 51.285156 -190.90625 51.503906 -190.765625 51.796875 -190.484375 C 54.078125 -192.765625 56.144531 -195.1875 58 -197.75 C 59.851562 -200.320312 61.921875 -202.609375 64.203125 -204.609375 C 66.484375 -206.890625 69.050781 -209.03125 71.90625 -211.03125 C 74.757812 -213.03125 77.613281 -215.023438 80.46875 -217.015625 C 77.050781 -217.867188 74.128906 -217.65625 71.703125 -216.375 C 69.273438 -215.09375 66.921875 -213.597656 64.640625 -211.890625 C 61.210938 -209.316406 58.140625 -206.390625 55.421875 -203.109375 C 52.710938 -199.828125 51.078125 -195.90625 50.515625 -191.34375 Z M 20.125 -51.359375 C 12.695312 -59.640625 10.695312 -69.628906 14.125 -81.328125 C 11.269531 -79.328125 9.34375 -76.257812 8.34375 -72.125 C 7.34375 -67.988281 7.554688 -63.921875 8.984375 -59.921875 C 10.984375 -53.648438 14.695312 -50.796875 20.125 -51.359375 Z M 106.578125 -86.03125 C 104.296875 -80.613281 104.296875 -75.050781 106.578125 -69.34375 C 107.722656 -66.488281 109.078125 -64.0625 110.640625 -62.0625 C 112.210938 -60.070312 114.425781 -58.644531 117.28125 -57.78125 C 117.851562 -57.5 118.492188 -57.5 119.203125 -57.78125 C 119.921875 -58.070312 120.566406 -58.21875 121.140625 -58.21875 C 121.140625 -58.5 121.207031 -58.710938 121.34375 -58.859375 C 121.488281 -59.003906 121.5625 -59.21875 121.5625 -59.5 C 116.144531 -62.632812 112.648438 -66.554688 111.078125 -71.265625 C 109.503906 -75.972656 108.003906 -80.894531 106.578125 -86.03125 Z M 106.578125 -86.03125 "/></g></g></g><g fill="#050c9c" fill-opacity="1"><g transform="translate(619.611262, 546.840887)"><g><path d="M 86.03125 -107.875 C 90.03125 -99.019531 94.238281 -90.238281 98.65625 -81.53125 C 103.082031 -72.832031 108.4375 -64.488281 114.71875 -56.5 C 116.144531 -55.070312 117.640625 -53.644531 119.203125 -52.21875 C 120.773438 -50.789062 122.132812 -49.222656 123.28125 -47.515625 C 127.5625 -42.085938 127.847656 -36.238281 124.140625 -29.96875 C 120.992188 -23.40625 115.851562 -20.125 108.71875 -20.125 C 104.15625 -20.125 100.160156 -21.265625 96.734375 -23.546875 C 93.878906 -25.828125 90.882812 -27.894531 87.75 -29.75 C 84.613281 -31.601562 81.898438 -33.816406 79.609375 -36.390625 C 73.046875 -43.515625 67.195312 -51.078125 62.0625 -59.078125 C 59.78125 -63.066406 57.710938 -67.269531 55.859375 -71.6875 C 54.003906 -76.113281 51.9375 -80.46875 49.65625 -84.75 C 49.082031 -85.601562 48.082031 -86.460938 46.65625 -87.328125 C 46.375 -84.753906 46.085938 -82.179688 45.796875 -79.609375 C 45.515625 -77.046875 45.226562 -74.476562 44.9375 -71.90625 C 44.9375 -69.050781 44.863281 -66.195312 44.71875 -63.34375 C 44.582031 -60.5 43.800781 -57.789062 42.375 -55.21875 C 40.375 -50.65625 37.234375 -47.226562 32.953125 -44.9375 C 28.671875 -42.65625 24.109375 -41.800781 19.265625 -42.375 C 14.691406 -43.226562 10.476562 -45.507812 6.625 -49.21875 C 2.78125 -52.9375 0.710938 -57.078125 0.421875 -61.640625 C 0.140625 -65.921875 0.0664062 -70.203125 0.203125 -74.484375 C 0.347656 -78.765625 0.566406 -83.1875 0.859375 -87.75 C 1.140625 -92.601562 1.421875 -97.597656 1.703125 -102.734375 C 1.992188 -107.867188 2.28125 -113.003906 2.5625 -118.140625 C 2.5625 -121.273438 2.5625 -124.484375 2.5625 -127.765625 C 2.5625 -131.046875 2.5625 -134.257812 2.5625 -137.40625 C 2.28125 -145.101562 2.140625 -152.875 2.140625 -160.71875 C 2.140625 -168.570312 2 -176.351562 1.71875 -184.0625 C 1.425781 -187.195312 1.132812 -190.40625 0.84375 -193.6875 C 0.5625 -196.96875 0.28125 -200.179688 0 -203.328125 C 0 -209.035156 1.566406 -214.023438 4.703125 -218.296875 C 7.847656 -222.578125 12.128906 -225.289062 17.546875 -226.4375 C 24.109375 -227.863281 30.742188 -229.359375 37.453125 -230.921875 C 44.160156 -232.492188 50.9375 -232.992188 57.78125 -232.421875 C 74.050781 -231.566406 88.460938 -225.71875 101.015625 -214.875 C 111.859375 -205.75 118.992188 -194.617188 122.421875 -181.484375 C 124.992188 -170.929688 125.132812 -160.945312 122.84375 -151.53125 C 120.5625 -142.113281 115.425781 -133.410156 107.4375 -125.421875 C 104.582031 -122.273438 101.300781 -119.347656 97.59375 -116.640625 C 93.882812 -113.929688 90.03125 -111.007812 86.03125 -107.875 Z M 46.65625 -146.8125 C 57.78125 -147.675781 67.34375 -151.675781 75.34375 -158.8125 C 78.757812 -161.65625 80.179688 -164.648438 79.609375 -167.796875 C 79.609375 -170.078125 79.179688 -172.21875 78.328125 -174.21875 C 77.472656 -176.21875 76.332031 -178.070312 74.90625 -179.78125 C 72.050781 -184.632812 67.269531 -188.34375 60.5625 -190.90625 C 53.863281 -193.476562 47.945312 -194.050781 42.8125 -192.625 C 43.375 -184.914062 44.007812 -177.28125 44.71875 -169.71875 C 45.4375 -162.15625 46.082031 -154.519531 46.65625 -146.8125 Z M 85.1875 -190.046875 C 84.894531 -189.765625 84.675781 -189.625 84.53125 -189.625 C 84.394531 -189.625 84.179688 -189.484375 83.890625 -189.203125 C 84.179688 -188.910156 84.328125 -188.476562 84.328125 -187.90625 C 84.328125 -187.34375 84.46875 -186.773438 84.75 -186.203125 C 88.75 -177.066406 88.035156 -168.503906 82.609375 -160.515625 C 81.472656 -158.804688 80.332031 -157.164062 79.1875 -155.59375 C 78.039062 -154.019531 76.898438 -152.519531 75.765625 -151.09375 C 75.484375 -150.8125 75.269531 -150.3125 75.125 -149.59375 C 74.976562 -148.882812 74.765625 -148.242188 74.484375 -147.671875 C 75.054688 -147.960938 75.695312 -148.035156 76.40625 -147.890625 C 77.113281 -147.742188 77.613281 -147.816406 77.90625 -148.109375 C 84.1875 -151.523438 88.46875 -157.085938 90.75 -164.796875 C 93.03125 -172.503906 92.457031 -179.492188 89.03125 -185.765625 C 88.457031 -186.335938 87.8125 -187.050781 87.09375 -187.90625 C 86.382812 -188.769531 85.75 -189.484375 85.1875 -190.046875 Z M 85.1875 -51.796875 C 84.894531 -51.796875 84.675781 -51.722656 84.53125 -51.578125 C 84.394531 -51.429688 84.328125 -51.359375 84.328125 -51.359375 C 84.328125 -49.929688 84.46875 -49.078125 84.75 -48.796875 C 87.03125 -45.941406 89.382812 -43.160156 91.8125 -40.453125 C 94.238281 -37.742188 96.878906 -35.242188 99.734375 -32.953125 C 101.160156 -31.816406 102.800781 -31.101562 104.65625 -30.8125 C 106.507812 -30.53125 108.4375 -30.101562 110.4375 -29.53125 C 111.007812 -29.25 111.722656 -29.460938 112.578125 -30.171875 C 113.429688 -30.890625 114.144531 -31.390625 114.71875 -31.671875 C 114.425781 -32.242188 113.921875 -32.816406 113.203125 -33.390625 C 112.492188 -33.960938 111.859375 -34.390625 111.296875 -34.671875 C 107.585938 -35.816406 104.085938 -37.457031 100.796875 -39.59375 C 97.515625 -41.738281 94.304688 -44.09375 91.171875 -46.65625 C 90.035156 -47.507812 88.96875 -48.363281 87.96875 -49.21875 C 86.96875 -50.082031 86.039062 -50.941406 85.1875 -51.796875 Z M 10.265625 -82.1875 C 9.128906 -81.039062 8.5625 -80.328125 8.5625 -80.046875 C 8.28125 -79.753906 8.140625 -79.46875 8.140625 -79.1875 C 8.140625 -78.90625 7.992188 -78.617188 7.703125 -78.328125 C 7.128906 -68.910156 10.125 -61.347656 16.6875 -55.640625 C 18.40625 -54.503906 20.691406 -53.648438 23.546875 -53.078125 C 24.117188 -52.796875 24.6875 -52.796875 25.25 -53.078125 C 25.820312 -53.359375 26.394531 -53.644531 26.96875 -53.9375 C 26.394531 -55.644531 25.679688 -56.785156 24.828125 -57.359375 C 16.835938 -61.921875 12.414062 -68.910156 11.5625 -78.328125 C 11.5625 -78.898438 11.414062 -79.472656 11.125 -80.046875 C 10.84375 -80.617188 10.554688 -81.332031 10.265625 -82.1875 Z M 11.984375 -197.75 C 12.265625 -197.75 12.476562 -197.820312 12.625 -197.96875 C 12.769531 -198.113281 12.984375 -198.1875 13.265625 -198.1875 C 13.554688 -198.757812 13.703125 -199.328125 13.703125 -199.890625 C 13.703125 -200.460938 13.84375 -200.894531 14.125 -201.1875 C 14.695312 -204.320312 15.550781 -207.242188 16.6875 -209.953125 C 17.832031 -212.671875 19.691406 -215.023438 22.265625 -217.015625 C 22.828125 -217.585938 23.109375 -218.160156 23.109375 -218.734375 C 23.109375 -219.304688 23.253906 -219.875 23.546875 -220.4375 C 22.972656 -220.4375 22.328125 -220.507812 21.609375 -220.65625 C 20.898438 -220.800781 20.257812 -220.726562 19.6875 -220.4375 C 16.832031 -219.007812 14.40625 -216.226562 12.40625 -212.09375 C 10.414062 -207.957031 9.703125 -204.320312 10.265625 -201.1875 C 10.554688 -200.613281 10.84375 -200.039062 11.125 -199.46875 C 11.414062 -198.894531 11.703125 -198.320312 11.984375 -197.75 Z M 11.984375 -197.75 "/></g></g></g><g fill="#050c9c" fill-opacity="1"><g transform="translate(759.151971, 546.840887)"><g><path d="M 73.625 -268.390625 C 77.050781 -268.671875 80.472656 -268.953125 83.890625 -269.234375 C 87.316406 -269.523438 90.601562 -269.8125 93.75 -270.09375 C 101.164062 -270.664062 106.796875 -268.3125 110.640625 -263.03125 C 114.492188 -257.75 115.707031 -252.539062 114.28125 -247.40625 C 113.144531 -242.5625 110.289062 -238.710938 105.71875 -235.859375 C 101.15625 -233.003906 96.59375 -232.144531 92.03125 -233.28125 C 89.457031 -233.851562 86.816406 -234.066406 84.109375 -233.921875 C 81.398438 -233.785156 78.476562 -233.71875 75.34375 -233.71875 C 75.625 -231.71875 75.90625 -229.859375 76.1875 -228.140625 C 76.476562 -226.429688 76.625 -224.863281 76.625 -223.4375 C 76.625 -221.15625 76.625 -218.726562 76.625 -216.15625 C 76.625 -213.59375 76.625 -211.171875 76.625 -208.890625 C 76.90625 -200.609375 77.046875 -192.1875 77.046875 -183.625 C 77.046875 -175.070312 77.1875 -166.65625 77.46875 -158.375 C 77.757812 -149.8125 78.1875 -141.25 78.75 -132.6875 C 79.320312 -124.132812 79.753906 -115.578125 80.046875 -107.015625 C 80.328125 -96.171875 80.539062 -85.179688 80.6875 -74.046875 C 80.832031 -62.921875 80.757812 -51.9375 80.46875 -41.09375 C 80.46875 -37.09375 80.320312 -33.023438 80.03125 -28.890625 C 79.75 -24.753906 78.46875 -20.6875 76.1875 -16.6875 C 72.476562 -10.125 67.195312 -5.628906 60.34375 -3.203125 C 53.5 -0.785156 46.796875 -1.71875 40.234375 -6 C 31.960938 -11.132812 27.828125 -18.550781 27.828125 -28.25 C 27.535156 -39.945312 27.390625 -51.503906 27.390625 -62.921875 C 27.390625 -74.335938 27.535156 -85.753906 27.828125 -97.171875 C 27.828125 -102.878906 27.828125 -108.65625 27.828125 -114.5 C 27.828125 -120.351562 27.96875 -126.132812 28.25 -131.84375 C 28.820312 -140.113281 29.320312 -148.382812 29.75 -156.65625 C 30.175781 -164.9375 30.53125 -173.070312 30.8125 -181.0625 C 31.101562 -186.195312 31.53125 -191.257812 32.09375 -196.25 C 32.664062 -201.25 33.097656 -206.316406 33.390625 -211.453125 C 33.671875 -214.585938 33.882812 -217.582031 34.03125 -220.4375 C 34.175781 -223.289062 34.390625 -226.144531 34.671875 -229 C 34.953125 -229.570312 35.019531 -230.285156 34.875 -231.140625 C 34.738281 -231.992188 34.671875 -232.851562 34.671875 -233.71875 C 31.816406 -233.71875 29.101562 -233.785156 26.53125 -233.921875 C 23.96875 -234.066406 21.398438 -234.28125 18.828125 -234.5625 C 9.410156 -235.132812 3.421875 -239.414062 0.859375 -247.40625 C -0.285156 -252.257812 0.707031 -256.828125 3.84375 -261.109375 C 6.988281 -265.390625 10.988281 -267.671875 15.84375 -267.953125 C 18.976562 -268.242188 22.113281 -268.457031 25.25 -268.59375 C 28.394531 -268.738281 31.394531 -268.953125 34.25 -269.234375 C 35.675781 -269.234375 36.671875 -270.519531 37.234375 -273.09375 C 37.804688 -275.09375 38.09375 -277.085938 38.09375 -279.078125 C 38.09375 -281.078125 38.238281 -283.078125 38.53125 -285.078125 C 39.382812 -289.078125 41.378906 -292.359375 44.515625 -294.921875 C 47.648438 -297.492188 51.789062 -298.492188 56.9375 -297.921875 C 60.644531 -297.640625 63.925781 -296 66.78125 -293 C 69.632812 -290 71.203125 -286.359375 71.484375 -282.078125 C 72.054688 -280.085938 72.484375 -278.019531 72.765625 -275.875 C 73.054688 -273.738281 73.34375 -271.242188 73.625 -268.390625 Z M 35.53125 -51.796875 C 35.53125 -51.503906 35.457031 -51.359375 35.3125 -51.359375 C 35.164062 -51.359375 35.09375 -51.359375 35.09375 -51.359375 C 35.664062 -47.648438 36.164062 -44.007812 36.59375 -40.4375 C 37.019531 -36.875 37.804688 -33.238281 38.953125 -29.53125 C 40.378906 -22.394531 44.375 -17.546875 50.9375 -14.984375 C 53.507812 -14.128906 55.789062 -13.84375 57.78125 -14.125 C 58.925781 -14.125 59.566406 -14.476562 59.703125 -15.1875 C 59.847656 -15.90625 59.492188 -16.691406 58.640625 -17.546875 C 58.359375 -17.835938 58.003906 -18.050781 57.578125 -18.1875 C 57.148438 -18.332031 56.648438 -18.546875 56.078125 -18.828125 C 49.796875 -21.398438 45.800781 -25.96875 44.09375 -32.53125 C 43.519531 -34.8125 43.085938 -37.019531 42.796875 -39.15625 C 42.515625 -41.300781 42.085938 -43.515625 41.515625 -45.796875 C 41.234375 -47.796875 40.945312 -49.796875 40.65625 -51.796875 C 40.375 -53.796875 39.945312 -55.789062 39.375 -57.78125 C 39.375 -58.351562 38.660156 -58.925781 37.234375 -59.5 C 36.953125 -59.21875 36.523438 -58.503906 35.953125 -57.359375 C 35.953125 -56.503906 35.953125 -55.578125 35.953125 -54.578125 C 35.953125 -53.578125 35.8125 -52.648438 35.53125 -51.796875 Z M 104.015625 -258.96875 C 103.734375 -254.96875 102.59375 -251.679688 100.59375 -249.109375 C 98.59375 -246.546875 96.023438 -244.269531 92.890625 -242.28125 C 92.597656 -242.28125 92.453125 -241.992188 92.453125 -241.421875 C 92.453125 -240.847656 92.597656 -240.421875 92.890625 -240.140625 C 93.460938 -239.566406 94.175781 -239.28125 95.03125 -239.28125 C 98.445312 -239.28125 101.582031 -241.347656 104.4375 -245.484375 C 107.289062 -249.617188 108.003906 -253.257812 106.578125 -256.40625 C 106.296875 -256.96875 105.941406 -257.390625 105.515625 -257.671875 C 105.085938 -257.960938 104.585938 -258.394531 104.015625 -258.96875 Z M 11.984375 -257.6875 C 8.554688 -254.832031 8.414062 -250.835938 11.5625 -245.703125 C 13.550781 -242.273438 16.257812 -240.703125 19.6875 -240.984375 C 18.550781 -244.128906 17.335938 -246.984375 16.046875 -249.546875 C 14.765625 -252.117188 13.410156 -254.832031 11.984375 -257.6875 Z M 46.65625 -277.796875 C 48.363281 -280.085938 50.070312 -282.300781 51.78125 -284.4375 C 53.5 -286.570312 55.070312 -288.640625 56.5 -290.640625 C 57.070312 -291.210938 57.070312 -291.785156 56.5 -292.359375 C 55.925781 -292.929688 55.210938 -293.21875 54.359375 -293.21875 C 51.796875 -292.925781 49.582031 -290.851562 47.71875 -287 C 45.863281 -283.15625 45.507812 -280.085938 46.65625 -277.796875 Z M 46.65625 -277.796875 "/></g></g></g><g fill="#050c9c" fill-opacity="1"><g transform="translate(887.135606, 546.840887)"><g><path d="M 68.0625 -97.59375 C 60.070312 -97.875 52.222656 -98.226562 44.515625 -98.65625 C 36.804688 -99.09375 28.957031 -99.453125 20.96875 -99.734375 C 19.257812 -99.734375 17.617188 -99.800781 16.046875 -99.9375 C 14.484375 -100.082031 12.84375 -100.300781 11.125 -100.59375 C 3.707031 -102.019531 0 -106.15625 0 -113 C 0 -119.851562 3.707031 -123.992188 11.125 -125.421875 C 13.976562 -125.992188 16.757812 -126.347656 19.46875 -126.484375 C 22.1875 -126.628906 24.972656 -126.84375 27.828125 -127.125 C 34.097656 -127.414062 40.300781 -127.703125 46.4375 -127.984375 C 52.570312 -128.273438 58.640625 -128.421875 64.640625 -128.421875 C 68.921875 -128.421875 73.195312 -128.347656 77.46875 -128.203125 C 81.75 -128.054688 86.03125 -127.84375 90.3125 -127.5625 C 94.3125 -127.269531 97.523438 -125.695312 99.953125 -122.84375 C 102.378906 -119.988281 103.445312 -116.566406 103.15625 -112.578125 C 103.15625 -108.867188 101.941406 -105.65625 99.515625 -102.9375 C 97.085938 -100.226562 93.878906 -98.734375 89.890625 -98.453125 C 86.179688 -98.160156 82.539062 -98.015625 78.96875 -98.015625 C 75.40625 -98.015625 71.769531 -98.015625 68.0625 -98.015625 C 68.0625 -98.015625 68.0625 -97.941406 68.0625 -97.796875 C 68.0625 -97.660156 68.0625 -97.59375 68.0625 -97.59375 Z M 86.03125 -104.4375 C 91.457031 -103.300781 95.3125 -105.015625 97.59375 -109.578125 C 98.738281 -111.285156 99.378906 -112.992188 99.515625 -114.703125 C 99.660156 -116.421875 98.59375 -118.140625 96.3125 -119.859375 C 94.601562 -117.285156 92.960938 -114.710938 91.390625 -112.140625 C 89.816406 -109.578125 88.03125 -107.007812 86.03125 -104.4375 Z M 8.140625 -116.859375 C 4.710938 -112.859375 4.710938 -109.148438 8.140625 -105.734375 C 8.992188 -104.867188 10.0625 -104.148438 11.34375 -103.578125 C 12.625 -103.015625 13.835938 -103.585938 14.984375 -105.296875 C 13.835938 -107.296875 12.765625 -109.222656 11.765625 -111.078125 C 10.765625 -112.929688 9.554688 -114.859375 8.140625 -116.859375 Z M 8.140625 -116.859375 "/></g></g></g><g fill="#050c9c" fill-opacity="1"><g transform="translate(1003.562226, 546.840887)"><g><path d="M 47.515625 -50.9375 C 50.648438 -49.789062 53.570312 -48.929688 56.28125 -48.359375 C 59 -47.796875 61.5 -46.800781 63.78125 -45.375 C 66.914062 -43.664062 69.050781 -41.3125 70.1875 -38.3125 C 71.332031 -35.3125 71.625 -32.097656 71.0625 -28.671875 C 70.769531 -24.960938 69.269531 -21.679688 66.5625 -18.828125 C 63.851562 -15.972656 60.925781 -14.265625 57.78125 -13.703125 C 51.789062 -12.273438 45.65625 -11.414062 39.375 -11.125 C 35.957031 -10.84375 32.675781 -11.34375 29.53125 -12.625 C 26.394531 -13.90625 23.257812 -15.546875 20.125 -17.546875 C 8.988281 -25.828125 2.992188 -37.097656 2.140625 -51.359375 C 1.859375 -61.347656 1.429688 -71.40625 0.859375 -81.53125 C 0.285156 -91.664062 0 -101.867188 0 -112.140625 C 0 -120.421875 0.285156 -128.695312 0.859375 -136.96875 C 1.429688 -145.25 2 -153.382812 2.5625 -161.375 C 2.851562 -166.507812 3.210938 -171.644531 3.640625 -176.78125 C 4.066406 -181.914062 4.421875 -187.195312 4.703125 -192.625 C 5.273438 -198.332031 5.632812 -204.109375 5.78125 -209.953125 C 5.925781 -215.804688 6.140625 -221.585938 6.421875 -227.296875 C 6.703125 -230.429688 7.128906 -233.640625 7.703125 -236.921875 C 8.273438 -240.203125 8.847656 -243.269531 9.421875 -246.125 C 10.273438 -250.6875 12.628906 -254.394531 16.484375 -257.25 C 20.335938 -260.101562 24.546875 -261.390625 29.109375 -261.109375 C 33.960938 -261.109375 38.171875 -259.46875 41.734375 -256.1875 C 45.296875 -252.90625 47.363281 -248.835938 47.9375 -243.984375 C 49.082031 -235.140625 49.941406 -225.863281 50.515625 -216.15625 C 50.796875 -213.019531 51.003906 -209.953125 51.140625 -206.953125 C 51.285156 -203.960938 51.359375 -200.894531 51.359375 -197.75 C 51.359375 -189.476562 51.285156 -181.203125 51.140625 -172.921875 C 51.003906 -164.648438 50.796875 -156.378906 50.515625 -148.109375 C 50.222656 -137.265625 50.003906 -126.421875 49.859375 -115.578125 C 49.722656 -104.734375 49.367188 -93.890625 48.796875 -83.046875 C 48.796875 -78.472656 48.648438 -73.757812 48.359375 -68.90625 C 48.078125 -64.0625 47.796875 -59.210938 47.515625 -54.359375 C 47.515625 -53.785156 47.515625 -53.140625 47.515625 -52.421875 C 47.515625 -51.710938 47.515625 -51.21875 47.515625 -50.9375 Z M 43.234375 -18.40625 C 43.234375 -18.6875 43.300781 -18.96875 43.4375 -19.25 C 43.582031 -19.539062 43.65625 -19.832031 43.65625 -20.125 C 43.375 -20.125 42.945312 -20.40625 42.375 -20.96875 C 35.238281 -24.113281 29.53125 -28.394531 25.25 -33.8125 C 20.96875 -39.238281 17.6875 -45.519531 15.40625 -52.65625 C 15.125 -53.21875 14.769531 -53.640625 14.34375 -53.921875 C 13.914062 -54.210938 13.414062 -54.503906 12.84375 -54.796875 C 12.550781 -54.222656 12.265625 -53.722656 11.984375 -53.296875 C 11.703125 -52.867188 11.5625 -52.367188 11.5625 -51.796875 C 12.125 -45.234375 14.332031 -38.738281 18.1875 -32.3125 C 22.039062 -25.894531 27.820312 -21.398438 35.53125 -18.828125 C 36.664062 -18.546875 37.945312 -18.40625 39.375 -18.40625 C 40.800781 -18.40625 42.085938 -18.40625 43.234375 -18.40625 Z M 36.390625 -250.828125 C 34.390625 -252.546875 31.890625 -253.257812 28.890625 -252.96875 C 25.898438 -252.6875 23.257812 -251.40625 20.96875 -249.125 C 18.113281 -246.269531 16.1875 -242.34375 15.1875 -237.34375 C 14.195312 -232.351562 14.695312 -228.429688 16.6875 -225.578125 C 17.832031 -228.429688 18.832031 -231.140625 19.6875 -233.703125 C 20.539062 -236.273438 21.539062 -238.847656 22.6875 -241.421875 C 24.113281 -244.273438 26.039062 -246.34375 28.46875 -247.625 C 30.894531 -248.90625 33.535156 -249.972656 36.390625 -250.828125 Z M 36.390625 -250.828125 "/></g></g></g><g fill="#050c9c" fill-opacity="1"><g transform="translate(1087.885879, 546.840887)"><g><path d="M 141.25 -94.59375 C 140.6875 -90.03125 140.117188 -85.394531 139.546875 -80.6875 C 138.972656 -75.976562 138.257812 -71.195312 137.40625 -66.34375 C 136.257812 -61.5 133.6875 -57.648438 129.6875 -54.796875 C 125.695312 -51.941406 121.132812 -50.796875 116 -51.359375 C 112.007812 -51.648438 108.300781 -53.648438 104.875 -57.359375 C 101.445312 -61.066406 99.445312 -65.0625 98.875 -69.34375 C 98.019531 -75.90625 96.738281 -82.179688 95.03125 -88.171875 C 95.03125 -88.742188 94.597656 -89.316406 93.734375 -89.890625 C 92.878906 -90.460938 92.171875 -90.75 91.609375 -90.75 C 85.035156 -90.457031 78.46875 -89.953125 71.90625 -89.234375 C 65.34375 -88.523438 58.925781 -87.175781 52.65625 -85.1875 C 46.09375 -83.1875 41.953125 -78.476562 40.234375 -71.0625 C 38.804688 -64.488281 36.664062 -58.207031 33.8125 -52.21875 C 32.382812 -49.363281 30.171875 -47.296875 27.171875 -46.015625 C 24.179688 -44.734375 20.972656 -44.234375 17.546875 -44.515625 C 10.128906 -45.367188 4.992188 -49.363281 2.140625 -56.5 C 0.710938 -60.207031 0.140625 -63.84375 0.421875 -67.40625 C 0.710938 -70.976562 1.285156 -74.617188 2.140625 -78.328125 C 5.273438 -89.460938 8.34375 -100.734375 11.34375 -112.140625 C 14.34375 -123.554688 17.695312 -134.832031 21.40625 -145.96875 C 24.820312 -156.8125 28.882812 -167.441406 33.59375 -177.859375 C 38.3125 -188.273438 43.804688 -198.191406 50.078125 -207.609375 C 58.066406 -220.160156 68.910156 -226.863281 82.609375 -227.71875 C 90.890625 -228.007812 98.738281 -225.015625 106.15625 -218.734375 C 114.425781 -211.597656 120.5625 -202.320312 124.5625 -190.90625 C 127.132812 -183.207031 129.347656 -175.429688 131.203125 -167.578125 C 133.054688 -159.734375 134.265625 -151.816406 134.828125 -143.828125 C 135.398438 -138.117188 136.1875 -132.476562 137.1875 -126.90625 C 138.1875 -121.34375 139.113281 -115.710938 139.96875 -110.015625 C 140.257812 -107.441406 140.40625 -104.867188 140.40625 -102.296875 C 140.40625 -99.734375 140.546875 -97.164062 140.828125 -94.59375 C 140.828125 -94.59375 140.96875 -94.59375 141.25 -94.59375 Z M 59.5 -128.421875 C 60.070312 -127.847656 60.359375 -127.703125 60.359375 -127.984375 C 69.203125 -128.554688 77.617188 -129.410156 85.609375 -130.546875 C 86.753906 -130.546875 87.328125 -131.40625 87.328125 -133.125 C 86.753906 -137.6875 86.109375 -142.175781 85.390625 -146.59375 C 84.679688 -151.019531 84.039062 -155.519531 83.46875 -160.09375 C 83.1875 -162.082031 82.757812 -163.929688 82.1875 -165.640625 C 81.613281 -167.359375 81.039062 -169.21875 80.46875 -171.21875 C 75.90625 -164.082031 71.835938 -157.019531 68.265625 -150.03125 C 64.703125 -143.039062 61.78125 -135.835938 59.5 -128.421875 Z M 50.515625 -191.34375 C 50.796875 -191.050781 51.003906 -190.90625 51.140625 -190.90625 C 51.285156 -190.90625 51.503906 -190.765625 51.796875 -190.484375 C 54.078125 -192.765625 56.144531 -195.1875 58 -197.75 C 59.851562 -200.320312 61.921875 -202.609375 64.203125 -204.609375 C 66.484375 -206.890625 69.050781 -209.03125 71.90625 -211.03125 C 74.757812 -213.03125 77.613281 -215.023438 80.46875 -217.015625 C 77.050781 -217.867188 74.128906 -217.65625 71.703125 -216.375 C 69.273438 -215.09375 66.921875 -213.597656 64.640625 -211.890625 C 61.210938 -209.316406 58.140625 -206.390625 55.421875 -203.109375 C 52.710938 -199.828125 51.078125 -195.90625 50.515625 -191.34375 Z M 20.125 -51.359375 C 12.695312 -59.640625 10.695312 -69.628906 14.125 -81.328125 C 11.269531 -79.328125 9.34375 -76.257812 8.34375 -72.125 C 7.34375 -67.988281 7.554688 -63.921875 8.984375 -59.921875 C 10.984375 -53.648438 14.695312 -50.796875 20.125 -51.359375 Z M 106.578125 -86.03125 C 104.296875 -80.613281 104.296875 -75.050781 106.578125 -69.34375 C 107.722656 -66.488281 109.078125 -64.0625 110.640625 -62.0625 C 112.210938 -60.070312 114.425781 -58.644531 117.28125 -57.78125 C 117.851562 -57.5 118.492188 -57.5 119.203125 -57.78125 C 119.921875 -58.070312 120.566406 -58.21875 121.140625 -58.21875 C 121.140625 -58.5 121.207031 -58.710938 121.34375 -58.859375 C 121.488281 -59.003906 121.5625 -59.21875 121.5625 -59.5 C 116.144531 -62.632812 112.648438 -66.554688 111.078125 -71.265625 C 109.503906 -75.972656 108.003906 -80.894531 106.578125 -86.03125 Z M 106.578125 -86.03125 "/></g></g></g><g fill="#050c9c" fill-opacity="1"><g transform="translate(1241.979914, 546.840887)"><g><path d="M 104.015625 -163.9375 C 105.722656 -163.082031 107.429688 -162.296875 109.140625 -161.578125 C 110.859375 -160.867188 112.570312 -159.945312 114.28125 -158.8125 C 119.988281 -155.664062 125.195312 -151.8125 129.90625 -147.25 C 134.613281 -142.6875 137.828125 -136.976562 139.546875 -130.125 C 141.546875 -122.132812 142.046875 -114.425781 141.046875 -107 C 140.046875 -99.582031 137.257812 -92.3125 132.6875 -85.1875 C 124.695312 -73.195312 114.140625 -63.632812 101.015625 -56.5 C 95.023438 -53.644531 88.816406 -51.503906 82.390625 -50.078125 C 75.972656 -48.648438 69.484375 -47.648438 62.921875 -47.078125 C 58.640625 -46.796875 54.359375 -46.582031 50.078125 -46.4375 C 45.796875 -46.300781 41.515625 -46.234375 37.234375 -46.234375 C 29.535156 -46.515625 22.617188 -48.796875 16.484375 -53.078125 C 10.347656 -57.359375 6.28125 -62.921875 4.28125 -69.765625 C 2.851562 -74.898438 2.140625 -79.609375 2.140625 -83.890625 C 1.859375 -91.878906 1.71875 -99.796875 1.71875 -107.640625 C 1.71875 -115.492188 1.71875 -123.414062 1.71875 -131.40625 C 1.71875 -134.832031 1.929688 -138.1875 2.359375 -141.46875 C 2.785156 -144.75 2.851562 -148.101562 2.5625 -151.53125 C 2.28125 -160.375 1.925781 -169.078125 1.5 -177.640625 C 1.070312 -186.203125 0.710938 -194.90625 0.421875 -203.75 C 0.140625 -207.75 1 -211.390625 3 -214.671875 C 5 -217.953125 7.421875 -220.875 10.265625 -223.4375 C 15.972656 -227.4375 21.96875 -230.429688 28.25 -232.421875 C 34.53125 -234.421875 41.09375 -235.707031 47.9375 -236.28125 C 65.914062 -237.707031 81.613281 -232.859375 95.03125 -221.734375 C 103.875 -214.878906 109.148438 -205.890625 110.859375 -194.765625 C 111.710938 -189.054688 111.566406 -184.0625 110.421875 -179.78125 C 109.285156 -175.5 107.148438 -170.21875 104.015625 -163.9375 Z M 47.515625 -92.03125 C 48.941406 -92.3125 50.082031 -92.523438 50.9375 -92.671875 C 51.789062 -92.816406 52.644531 -92.890625 53.5 -92.890625 C 60.632812 -93.460938 67.269531 -95.171875 73.40625 -98.015625 C 79.539062 -100.867188 85.320312 -104.582031 90.75 -109.15625 C 97.882812 -114.863281 97.3125 -119.425781 89.03125 -122.84375 C 85.039062 -124.5625 80.972656 -125.773438 76.828125 -126.484375 C 72.691406 -127.203125 68.628906 -127.132812 64.640625 -126.28125 C 62.347656 -125.988281 59.988281 -125.554688 57.5625 -124.984375 C 55.144531 -124.421875 52.648438 -123.851562 50.078125 -123.28125 C 46.941406 -122.132812 45.660156 -119.707031 46.234375 -116 C 46.515625 -114.289062 46.65625 -112.578125 46.65625 -110.859375 C 46.65625 -109.148438 46.65625 -107.441406 46.65625 -105.734375 C 46.9375 -103.734375 47.148438 -101.585938 47.296875 -99.296875 C 47.441406 -97.015625 47.515625 -94.59375 47.515625 -92.03125 Z M 70.625 -190.484375 C 70.050781 -191.054688 69.476562 -191.554688 68.90625 -191.984375 C 68.34375 -192.410156 67.773438 -192.765625 67.203125 -193.046875 C 63.203125 -195.328125 59.132812 -196.394531 55 -196.25 C 50.863281 -196.113281 46.65625 -195.472656 42.375 -194.328125 C 42.09375 -194.328125 41.664062 -193.96875 41.09375 -193.25 C 40.519531 -192.539062 40.234375 -191.90625 40.234375 -191.34375 C 40.523438 -187.625 40.882812 -183.835938 41.3125 -179.984375 C 41.738281 -176.140625 42.09375 -172.078125 42.375 -167.796875 C 48.082031 -170.648438 53.359375 -173.785156 58.203125 -177.203125 C 63.054688 -180.628906 67.195312 -185.054688 70.625 -190.484375 Z M 13.265625 -83.890625 C 12.128906 -80.179688 12.628906 -76.046875 14.765625 -71.484375 C 16.910156 -66.921875 19.976562 -63.066406 23.96875 -59.921875 C 27.96875 -57.066406 32.390625 -55.140625 37.234375 -54.140625 C 42.085938 -53.148438 45.941406 -53.648438 48.796875 -55.640625 C 40.234375 -57.066406 33.097656 -60.132812 27.390625 -64.84375 C 21.679688 -69.550781 16.972656 -75.898438 13.265625 -83.890625 Z M 29.53125 -223.015625 C 29.25 -223.296875 29.109375 -223.863281 29.109375 -224.71875 C 27.109375 -225.289062 25.679688 -225.4375 24.828125 -225.15625 C 19.398438 -224.007812 15.117188 -220.15625 11.984375 -213.59375 C 8.847656 -207.03125 8.273438 -201.179688 10.265625 -196.046875 C 10.265625 -196.046875 10.835938 -195.472656 11.984375 -194.328125 C 13.984375 -200.035156 15.835938 -205.53125 17.546875 -210.8125 C 19.265625 -216.09375 23.257812 -220.160156 29.53125 -223.015625 Z M 91.609375 -132.6875 C 92.171875 -132.40625 92.664062 -132.117188 93.09375 -131.828125 C 93.53125 -131.546875 93.890625 -131.265625 94.171875 -130.984375 C 104.734375 -125.847656 106.726562 -119 100.15625 -110.4375 C 99.59375 -108.726562 99.164062 -107.300781 98.875 -106.15625 C 103.726562 -106.726562 107.007812 -109.867188 108.71875 -115.578125 C 109.582031 -117.859375 109.796875 -120.425781 109.359375 -123.28125 C 108.929688 -126.132812 107.722656 -128.128906 105.734375 -129.265625 C 103.734375 -130.984375 101.585938 -132.269531 99.296875 -133.125 C 97.015625 -133.976562 94.453125 -133.832031 91.609375 -132.6875 Z M 70.203125 -177.640625 C 74.191406 -178.492188 77.398438 -180.273438 79.828125 -182.984375 C 82.253906 -185.703125 83.328125 -188.488281 83.046875 -191.34375 C 82.753906 -194.476562 81.253906 -196.972656 78.546875 -198.828125 C 75.835938 -200.679688 72.484375 -201.75 68.484375 -202.03125 C 70.484375 -200.039062 72.054688 -198.613281 73.203125 -197.75 C 76.335938 -195.46875 77.90625 -193.472656 77.90625 -191.765625 C 77.90625 -190.054688 76.765625 -187.628906 74.484375 -184.484375 C 73.910156 -183.347656 73.265625 -182.28125 72.546875 -181.28125 C 71.835938 -180.28125 71.054688 -179.066406 70.203125 -177.640625 Z M 70.203125 -177.640625 "/></g></g></g><g clip-path="url(#582b8a8913)"><path fill="#050c9c" d="M 1266.816406 606.136719 C 1266.289062 594 1261.804688 584.503906 1253.625 584.242188 C 1239.382812 583.714844 1225.136719 578.4375 1210.894531 580.8125 C 1195.59375 583.449219 1181.085938 581.078125 1166.3125 577.121094 C 1163.414062 576.328125 1160.773438 575.273438 1158.136719 576.855469 C 1151.277344 581.339844 1144.15625 578.964844 1137.035156 578.175781 C 1126.484375 577.121094 1116.195312 572.371094 1105.644531 578.964844 C 1104.0625 580.019531 1101.421875 579.230469 1099.3125 578.703125 C 1071.089844 570.523438 1042.335938 577.121094 1013.847656 576.328125 C 1006.988281 581.078125 999.867188 575.273438 993.007812 576.59375 C 985.097656 578.175781 977.445312 578.175781 969.53125 577.382812 C 956.078125 576.328125 942.363281 573.164062 929.175781 579.492188 C 926.800781 580.550781 923.632812 580.019531 920.734375 580.019531 C 908.597656 580.285156 896.464844 580.019531 884.332031 581.078125 C 877.738281 581.605469 871.667969 582.132812 865.867188 577.648438 C 862.699219 575.007812 859.007812 576.59375 855.578125 577.648438 C 842.652344 581.867188 826.035156 585.035156 816.273438 582.660156 C 808.097656 580.8125 800.710938 581.339844 792.796875 582.921875 C 787.257812 583.976562 781.457031 584.503906 775.652344 584.769531 C 710.234375 586.617188 644.816406 588.726562 579.398438 592.945312 C 545.632812 595.058594 511.871094 596.640625 478.105469 598.484375 C 465.179688 599.277344 452.253906 601.386719 439.332031 601.652344 C 391.847656 602.96875 344.367188 602.96875 296.886719 606.398438 C 282.378906 607.453125 268.664062 611.410156 254.15625 612.464844 C 229.886719 614.578125 205.355469 617.742188 181.085938 620.378906 C 177.65625 620.90625 174.230469 621.699219 172.910156 626.445312 C 203.246094 624.601562 233.316406 621.960938 263.125 620.90625 C 288.183594 619.851562 313.242188 620.378906 338.300781 620.378906 C 356.238281 620.378906 374.175781 620.644531 392.113281 620.117188 C 422.449219 619.324219 452.519531 616.949219 482.855469 616.949219 C 500.265625 616.949219 517.410156 615.894531 534.554688 614.839844 C 552.492188 613.785156 570.429688 614.578125 588.101562 613.523438 C 643.234375 610.355469 698.363281 607.453125 753.757812 609.828125 C 763.519531 605.609375 773.804688 611.675781 783.566406 609.039062 C 797.28125 605.082031 810.472656 605.34375 824.1875 608.511719 C 828.144531 609.566406 832.894531 608.773438 837.113281 608.511719 C 849.246094 607.71875 861.382812 606.664062 873.515625 606.136719 C 905.960938 604.554688 938.144531 604.554688 970.324219 609.300781 C 972.433594 609.566406 975.070312 610.355469 976.65625 609.300781 C 988.789062 602.707031 1001.714844 609.039062 1014.375 606.664062 C 1022.816406 605.082031 1033.105469 605.34375 1042.074219 606.925781 C 1058.164062 609.828125 1074.253906 609.039062 1090.34375 610.882812 C 1100.632812 612.203125 1110.128906 608.511719 1120.152344 608.773438 C 1135.1875 609.300781 1150.488281 609.300781 1165.523438 610.09375 C 1187.679688 611.148438 1210.101562 610.882812 1231.996094 615.105469 C 1240.699219 616.949219 1249.140625 616.160156 1257.847656 615.894531 C 1266.023438 615.367188 1267.078125 613.785156 1266.816406 606.136719 Z M 1266.816406 606.136719 " fill-opacity="1" fill-rule="nonzero"/></g></svg>